<svg width="34" height="33" viewBox="0 0 34 33" fill="none" xmlns="http://www.w3.org/2000/svg">
<path d="M2.295 18.099H3.94033V29.6163C3.94033 31.4311 5.41619 32.9069 7.23099 32.9069H26.975C28.7898 32.9069 30.2656 31.4311 30.2656 29.6163V18.099H31.9109C32.2363 18.0989 32.5543 18.0024 32.8249 17.8216C33.0954 17.6408 33.3062 17.3838 33.4307 17.0832C33.5552 16.7826 33.5878 16.4519 33.5243 16.1327C33.4609 15.8136 33.3042 15.5205 33.0742 15.2904L18.2662 0.482413C18.1136 0.329486 17.9322 0.208163 17.7326 0.125385C17.533 0.0426076 17.3191 0 17.103 0C16.8869 0 16.6729 0.0426076 16.4733 0.125385C16.2737 0.208163 16.0924 0.329486 15.9397 0.482413L1.13176 15.2904C0.901723 15.5205 0.745077 15.8136 0.68162 16.1327C0.618164 16.4519 0.650747 16.7826 0.775249 17.0832C0.899751 17.3838 1.11058 17.6408 1.38109 17.8216C1.6516 18.0024 1.96964 18.0989 2.295 18.099ZM13.8123 29.6163V21.3896H20.3936V29.6163H13.8123ZM17.103 3.97216L26.975 13.8441V21.3896L26.9766 29.6163H23.6843V21.3896C23.6843 19.5748 22.2084 18.099 20.3936 18.099H13.8123C11.9975 18.099 10.5217 19.5748 10.5217 21.3896V29.6163H7.23099V13.8441L17.103 3.97216Z" fill="black"/>
</svg>
