<svg width="50" height="50" viewBox="0 0 50 50" fill="none" xmlns="http://www.w3.org/2000/svg">
<path d="M36 3H14C7.92487 3 3 7.92487 3 14V36C3 42.0751 7.92487 47 14 47H36C42.0751 47 47 42.0751 47 36V14C47 7.92487 42.0751 3 36 3Z" stroke="#161B33" stroke-width="4.4" stroke-linecap="round" stroke-linejoin="round"/>
<path d="M37.1 12.9H37.122M33.8 23.614C34.0715 25.445 33.7588 27.3149 32.9063 28.9578C32.0538 30.6008 30.7049 31.9331 29.0516 32.7653C27.3982 33.5975 25.5246 33.8871 23.6971 33.5931C21.8697 33.299 20.1815 32.4362 18.8726 31.1274C17.5638 29.8185 16.701 28.1303 16.4069 26.3029C16.1129 24.4754 16.4025 22.6018 17.2347 20.9484C18.0669 19.2951 19.3992 17.9462 21.0422 17.0937C22.6851 16.2412 24.555 15.9285 26.386 16.2C28.2536 16.477 29.9827 17.3472 31.3177 18.6823C32.6528 20.0173 33.523 21.7464 33.8 23.614Z" stroke="#161B33" stroke-width="4.4" stroke-linecap="round" stroke-linejoin="round"/>
</svg>
