<svg width="34" height="33" viewBox="0 0 34 33" fill="none" xmlns="http://www.w3.org/2000/svg">
<path fill-rule="evenodd" clip-rule="evenodd" d="M17.2195 0C8.13293 0 0.766602 7.36633 0.766602 16.4529C0.766602 25.5396 8.13293 32.9059 17.2195 32.9059C26.3062 32.9059 33.6725 25.5396 33.6725 16.4529C33.6725 7.36633 26.3062 0 17.2195 0ZM3.06236 16.4529C3.06236 12.9573 4.32962 9.75698 6.42948 7.28674L11.3317 12.1874C10.4311 13.4271 9.94719 14.9207 9.94964 16.4529C9.94729 17.9852 10.4312 19.4787 11.3317 20.7185L6.42948 25.6192C4.25118 23.0623 3.05716 19.8119 3.06236 16.4529ZM12.954 10.5651L8.05334 5.66287C10.6102 3.48458 13.8606 2.29056 17.2195 2.29576C20.7152 2.29576 23.9155 3.56302 26.3858 5.66287L21.4835 10.5651C20.2443 9.66471 18.7513 9.1808 17.2195 9.18304C15.6873 9.18059 14.1937 9.6645 12.954 10.5651ZM8.05334 27.243C10.6102 29.4213 13.8606 30.6153 17.2195 30.6101C20.5785 30.6153 23.8289 29.4213 26.3858 27.243L21.4835 22.3408C20.2443 23.2412 18.7513 23.7251 17.2195 23.7229C15.6873 23.7253 14.1937 23.2414 12.954 22.3408L8.05334 27.243ZM23.1074 20.7169L28.0096 25.6192C30.1879 23.0623 31.3819 19.8119 31.3767 16.4529C31.3819 13.094 30.1879 9.84358 28.0096 7.28674L23.1074 12.1874C24.0079 13.4272 24.4918 14.9207 24.4895 16.4529C24.492 17.9853 24.0081 19.4773 23.1074 20.7169ZM12.2454 16.4529C12.2454 15.1337 12.7695 13.8685 13.7023 12.9357C14.6351 12.0029 15.9003 11.4788 17.2195 11.4788C18.5388 11.4788 19.804 12.0029 20.7368 12.9357C21.6696 13.8685 22.1937 15.1337 22.1937 16.4529C22.1937 17.7722 21.6696 19.0374 20.7368 19.9702C19.804 20.903 18.5388 21.4271 17.2195 21.4271C15.9003 21.4271 14.6351 20.903 13.7023 19.9702C12.7695 19.0374 12.2454 17.7722 12.2454 16.4529Z" fill="black"/>
</svg>
