<svg width="34" height="36" viewBox="0 0 34 36" fill="none" xmlns="http://www.w3.org/2000/svg">
<path d="M17.3362 0C16.0666 0 14.6695 0.370191 13.4794 0.728043C12.3126 1.08178 11.4557 1.44649 11.4228 1.45609H11.3817L7.43843 2.78603L7.30955 2.82716C7.13601 2.87616 6.96489 2.93335 6.79676 2.99855L6.36762 3.1288V3.17268C5.22139 3.66489 3.42665 4.73022 2.38326 6.94314C0.964194 9.94032 0.883301 13.6669 0.883301 13.6669V16.4529H6.36762V35.6481H28.3049V16.4529H33.7892V13.5819C33.7892 13.5819 33.6713 12.4206 33.4464 11.0111C33.2216 9.60304 32.9912 8.04961 32.2042 6.81289C31.2528 5.29424 29.9044 4.06443 28.3049 3.25631V3.12743L27.7482 2.95605C27.6673 2.91903 27.6838 2.94096 27.6193 2.91354L27.3616 2.82716L23.2922 1.45609H23.2483C23.2168 1.44649 22.3599 1.08178 21.1917 0.729414C20.003 0.370191 18.6072 0 17.3362 0ZM17.3362 2.74216C17.9313 2.74216 19.2914 3.05751 20.3787 3.38519C20.6625 3.4702 20.646 3.47569 20.8928 3.55658C20.8064 3.68409 20.742 3.80749 20.6351 3.94185C19.9934 4.73982 19.0926 5.48432 17.3362 5.48432C15.5799 5.48432 14.6791 4.73982 14.0374 3.94185C13.9305 3.80749 13.866 3.68409 13.7797 3.55658C14.0265 3.47569 14.01 3.4702 14.2938 3.38519C15.3811 3.05751 16.7412 2.74216 17.3362 2.74216ZM11.08 4.4135C11.2843 4.80426 11.5462 5.22244 11.8944 5.6557C12.548 6.46792 13.3772 7.12128 14.3199 7.56658C15.2625 8.01188 16.2938 8.23751 17.3362 8.22647C19.9495 8.22647 21.7648 6.91435 22.7781 5.6557C23.1263 5.22244 23.3882 4.80426 23.5911 4.4135L25.5627 5.09904V32.9059H9.10977V5.09904L11.08 4.4135ZM6.36762 6.25486V13.7108H3.62546C3.63094 13.6354 3.83935 10.3146 4.86766 8.1401C5.20638 7.39912 5.72136 6.75234 6.36762 6.25623V6.25486ZM28.3049 6.47012C28.8081 6.89241 29.3647 7.44359 29.8898 8.26898C30.1092 8.61723 30.5384 10.1542 30.7468 11.4403C30.9456 12.6551 31.0361 13.6038 31.047 13.7108H28.3049V6.47012Z" fill="black"/>
</svg>
