<svg width="55" height="55" viewBox="0 0 55 55" fill="none" xmlns="http://www.w3.org/2000/svg">
<g clip-path="url(#clip0_212_134)">
<path d="M19.3657 43.0883C18.5012 42.8263 18.0885 42.259 18.08 41.321C18.0688 40.0658 18.7646 39.4219 20.1296 39.4246C21.0135 39.4269 21.3025 39.4998 21.3025 39.723C21.3025 39.8749 21.182 39.896 20.3536 39.8897C19.5047 39.8835 19.3701 39.9084 19.0758 40.1281C18.2989 40.7082 18.376 41.979 19.2194 42.4978C19.534 42.6912 19.6792 42.711 20.4395 42.6638C21.2191 42.6153 21.3025 42.6278 21.3025 42.7921C21.3025 42.8922 21.2327 43.0007 21.1474 43.0333C20.829 43.1549 19.7004 43.1897 19.3657 43.0883V43.0883ZM23.31 43.0074C23.2791 42.9575 23.4563 42.4867 23.704 41.9611C23.9516 41.4355 24.319 40.646 24.5204 40.2068C24.8371 39.516 24.9182 39.4126 25.1206 39.4412C25.3096 39.4679 25.4453 39.6802 25.8266 40.546C26.0862 41.1356 26.4209 41.8833 26.5703 42.2077C26.8925 42.9072 26.9092 43.098 26.6482 43.098C26.5187 43.098 26.3816 42.9441 26.2355 42.6349L26.0167 42.1717L25.083 42.2011L24.1492 42.2305L23.9312 42.6615C23.727 43.0653 23.4439 43.223 23.31 43.0075L23.31 43.0074ZM25.7991 41.6929C25.7803 41.65 25.6307 41.2825 25.4666 40.8763C25.3025 40.4701 25.1406 40.1377 25.1067 40.1377C25.0419 40.1377 24.561 41.1472 24.4379 41.5413C24.3681 41.7647 24.3861 41.771 25.0998 41.771C25.5032 41.771 25.8179 41.7359 25.7991 41.6929V41.6929ZM28.9963 41.2606V39.4232H29.8203C30.8702 39.4232 31.31 39.5956 31.5169 40.0884C31.6122 40.3153 31.6461 40.5853 31.6061 40.7978C31.5414 41.1407 31.23 41.5668 31.044 41.5668C30.8612 41.5668 30.9434 41.7792 31.3649 42.3969C31.5957 42.735 31.7594 43.0366 31.7287 43.0671C31.573 43.222 31.1541 42.9248 30.7539 42.3753C30.3187 41.7778 30.294 41.7613 29.882 41.7912L29.4579 41.8221L29.4274 42.4601C29.4009 43.0144 29.3705 43.0981 29.1965 43.0981C29.0053 43.0981 28.9963 43.015 28.9963 41.2607L28.9963 41.2606ZM30.8803 41.1511C31.0869 40.9894 31.1505 40.8489 31.1505 40.5547C31.1505 40.2249 31.1029 40.1446 30.8172 39.9928C30.5931 39.8738 30.3155 39.8267 29.9708 39.8492L29.4579 39.8825L29.4278 40.6226L29.3976 41.3627H30.0037C30.4617 41.3627 30.676 41.3109 30.8802 41.1511H30.8803ZM33.841 41.2861L33.869 39.4742H35.0986C36.1881 39.4742 36.3322 39.4946 36.3628 39.6529C36.3937 39.8126 36.2962 39.8317 35.4409 39.8331C34.9149 39.8338 34.424 39.8728 34.35 39.9195C34.261 39.9757 34.2263 40.1736 34.2474 40.5049L34.2793 41.0054L35.2016 41.0565C35.9656 41.0988 36.1295 41.1375 36.1572 41.2822C36.1866 41.4354 36.0727 41.4606 35.235 41.4864L34.2793 41.5158L34.2474 42.0163C34.2264 42.3476 34.261 42.5455 34.35 42.6016C34.424 42.6483 34.9115 42.6872 35.4334 42.6881C36.3134 42.6897 36.3823 42.7044 36.3823 42.8938C36.3823 43.0871 36.3139 43.098 35.0976 43.098H33.813L33.841 41.2861ZM13.3624 40.3689C13.3286 40.3354 13.301 36.0443 13.301 30.8332V21.3585L15.6348 19.8162L17.9686 18.2739L17.9949 25.6841C18.0134 30.8836 18.0542 33.0944 18.1315 33.0944C18.1921 33.0944 18.8497 32.7427 19.5927 32.3128C20.3356 31.883 21.1051 31.4411 21.3026 31.3309C21.7112 31.1028 24.0512 29.7578 24.4654 29.5129C24.6159 29.4239 25.0161 29.1994 25.3546 29.014C25.6932 28.8287 26.281 28.4948 26.6609 28.272L27.3517 27.867L27.9432 28.1996C28.2685 28.3825 28.6762 28.6114 28.849 28.7083C29.0219 28.8051 29.7836 29.2405 30.5417 29.6757C32.4112 30.7492 33.1008 31.1426 34.1255 31.7201C34.6051 31.9904 35.3206 32.403 35.7156 32.637C36.1105 32.8709 36.6641 33.1896 36.9456 33.3452C37.2272 33.5009 38.2197 34.0675 39.1512 34.6044C40.0827 35.1414 40.9717 35.6447 41.1269 35.723L41.409 35.8654V38.0976C41.409 39.3253 41.3704 40.3536 41.3232 40.3826C41.2378 40.435 40.6873 40.1335 36.6901 37.8443C35.5335 37.1818 34.4457 36.5597 34.2728 36.4617C34.1 36.3638 33.3614 35.9398 32.6315 35.5196C31.9016 35.0994 31.0737 34.6341 30.7916 34.4855C30.2796 34.2159 30.0971 34.1092 29.6123 33.7961C29.471 33.7048 28.9283 33.3948 28.4063 33.1071C27.4819 32.5976 27.1197 32.4868 27.0015 32.6771C26.9698 32.7283 26.6092 32.9571 26.2005 33.1855C25.7917 33.4139 25.2264 33.7324 24.9443 33.8934C23.6639 34.624 19.6466 36.9274 19.0457 37.2754C18.679 37.4879 17.7816 38.0006 17.0515 38.4148C16.3215 38.8291 15.5136 39.293 15.2563 39.4458C13.9919 40.1965 13.4531 40.4592 13.3624 40.3689H13.3624ZM39.7163 31.3735C38.9828 30.9911 37.7245 30.3261 36.92 29.8958C36.1155 29.4654 35.4153 29.1133 35.3641 29.1133C35.3129 29.1133 35.2556 29.0788 35.2368 29.0368C35.218 28.9947 34.9718 28.8462 34.6897 28.7068C34.4076 28.5674 33.8767 28.2874 33.51 28.0846C33.1432 27.8817 32.2892 27.4267 31.6122 27.0735C30.9351 26.7202 30.035 26.2468 29.6118 26.0214C29.1886 25.796 28.5654 25.4725 28.2269 25.3023C27.8884 25.1322 27.4845 24.9064 27.3293 24.8005L27.0472 24.608V22.4713C27.0472 21.0383 27.0829 20.3346 27.1556 20.3346C27.2558 20.3346 30.0264 21.7276 33.6126 23.581C35.5221 24.5679 36.452 25.0302 36.5274 25.0302C36.5604 25.0302 36.5875 23.2387 36.5875 21.049V17.0678L31.8943 14.7457C29.313 13.4685 27.1672 12.3776 27.1257 12.3215C27.0843 12.2654 27.0496 11.2892 27.0488 10.1523C27.0472 8.48311 27.0739 8.08527 27.1858 8.08527C27.2621 8.08527 28.2892 8.54846 29.4683 9.1146C32.9913 10.8061 35.047 11.7871 37.1517 12.781C37.7159 13.0474 38.7249 13.5269 39.3939 13.8465C40.0629 14.166 40.7207 14.4693 40.8557 14.5204L41.1011 14.6132V23.3434C41.1011 28.145 41.0896 32.0725 41.0755 32.0712C41.0613 32.0697 40.4497 31.756 39.7162 31.3736L39.7163 31.3735Z" fill="#FFFFFB"/>
</g>
<circle cx="27.5" cy="27.5" r="25.5" stroke="#FFFFFB" stroke-width="2.35714"/>
<circle cx="27.5" cy="27.5" r="25.5" stroke="#FFFFFB" stroke-width="2.35714"/>
<defs>
<clipPath id="clip0_212_134">
<rect width="28.108" height="35.0625" fill="white" transform="translate(13.301 8.08527)"/>
</clipPath>
</defs>
</svg>
