<svg width="55" height="39" viewBox="0 0 55 39" fill="none" xmlns="http://www.w3.org/2000/svg">
<path d="M22 27.5L36.2725 19.25L22 11V27.5ZM53.79 5.9675C54.1475 7.26 54.395 8.9925 54.56 11.1925C54.7525 13.3925 54.835 15.29 54.835 16.94L55 19.25C55 25.2725 54.56 29.7 53.79 32.5325C53.1025 35.0075 51.5075 36.6025 49.0325 37.29C47.74 37.6475 45.375 37.895 41.745 38.06C38.17 38.2525 34.8975 38.335 31.8725 38.335L27.5 38.5C15.9775 38.5 8.8 38.06 5.9675 37.29C3.4925 36.6025 1.8975 35.0075 1.21 32.5325C0.8525 31.24 0.605 29.5075 0.44 27.3075C0.2475 25.1075 0.165 23.21 0.165 21.56L0 19.25C0 13.2275 0.44 8.8 1.21 5.9675C1.8975 3.4925 3.4925 1.8975 5.9675 1.21C7.26 0.8525 9.625 0.605 13.255 0.44C16.83 0.2475 20.1025 0.165 23.1275 0.165L27.5 0C39.0225 0 46.2 0.44 49.0325 1.21C51.5075 1.8975 53.1025 3.4925 53.79 5.9675Z" fill="#161B33"/>
</svg>
